PathFileType	4	(X/Y/Z)	Patient4_TMGait_0pt5_01_left_02.trc.trc
DataRate	CameraRate	NumFrames	NumMarkers	Units	OrigDataRate	OrigDataStartFrame	OrigNumFrames
76.502732240437	76.502732240437	4	33	mm	76.502732240437	106	       141
Frame#	Time	L.ASIS			Sacral			L.Shoulder			Chest			R.Shoulder			Neck			R.ASIS			R.Thigh.Superior			R.Thigh.Lateral			R.Thigh.Inferior			R.Patella			L.Thigh.Superior			L.Thigh.Lateral			L.Thigh.Inferior			L.Patella			L.Shank.Superior			L.Shank.Lateral			L.Shank.Inferior			R.Shank.Superior			R.Shank.Lateral			R.Shank.Inferior			R.Heel			R.Midfoot.Superior			R.Midfoot.Lateral			R.Toe			L.Heel			L.Midfoot.Lateral			L.Midfoot.Superior			L.Toe			L.Elbow			L.Wrist			R.Elbow			R.Wrist			
		X1	Y1	Z1	X2	Y2	Z2	X3	Y3	Z3	X4	Y4	Z4	X5	Y5	Z5	X6	Y6	Z6	X7	Y7	Z7	X8	Y8	Z8	X9	Y9	Z9	X10	Y10	Z10	X11	Y11	Z11	X12	Y12	Z12	X13	Y13	Z13	X14	Y14	Z14	X15	Y15	Z15	X16	Y16	Z16	X17	Y17	Z17	X18	Y18	Z18	X19	Y19	Z19	X20	Y20	Z20	X21	Y21	Z21	X22	Y22	Z22	X23	Y23	Z23	X24	Y24	Z24	X25	Y25	Z25	X26	Y26	Z26	X27	Y27	Z27	X28	Y28	Z28	X29	Y29	Z29	X30	Y30	Z30	X31	Y31	Z31	X32	Y32	Z32	X33	Y33	Z33	

106	3.912500000000	757.130728382805	968.115017032618	372.439784774028	553.308014681084	1009.854542622400	542.565865868454	717.243400998192	1440.254898412471	356.657512427892	830.748908620316	1368.427063030369	509.816794125943	759.301833478409	1440.190040257479	690.774674931693	729.970312061466	1499.337349522140	507.957413467320	788.516051787701	943.408211168502	643.998440988848	819.361449748646	740.132554052953	610.289328490278	736.746924848227	634.729076796976	672.449121107176	805.661396828142	579.902676203186	587.561108066873	801.609690429743	492.661329145333	591.796630178956	844.056124927827	786.972839574729	399.851374052565	799.982829464079	659.537410460915	324.501125012091	903.156141101910	598.859698804026	384.619382468574	921.997621421269	514.929689432948	378.752575001162	873.414045605631	441.092573810827	368.749548659631	752.389201870977	362.077201278843	314.457683002700	776.761798547388	233.866882600359	368.244423422896	774.300609793394	404.948876113223	598.964824612949	703.981624859932	300.740549796396	659.432313645305	744.632679675954	207.138454076408	594.530282217298	606.616054622606	43.390276733771	563.215727147728	779.411892553202	97.168473764582	597.926438085106	690.589706621805	36.473255019210	637.335879772913	898.762587465124	43.419159578756	624.591486604417	612.755575129337	113.721681583055	398.461977847149	683.333468181005	92.341137947277	318.936363177637	779.580376964505	131.158349018662	344.116702130208	888.154262305918	51.072091833940	316.010483861405	670.206801078747	1085.330893507732	244.537380620125	729.659453558319	832.303205732831	226.089065658381	810.625564181951	1105.662933206815	826.535345056189	1038.603798059581	987.235976801213	800.508096755483	
107	3.925571428571	754.605260607390	968.513920022446	372.385531673171	551.807579474544	1010.628910793893	543.708489023170	716.088995207293	1440.484650584714	357.127720676230	830.388295215598	1368.183120098889	509.410270828918	760.651480156612	1440.306330280027	690.901204240407	729.960791083990	1499.407129994883	508.375560923868	787.039592769506	943.145616200843	643.824804421011	815.803362085635	739.495900567097	609.628240024717	732.807984689918	634.729437020663	672.634675571927	800.512349953026	579.335977879936	587.266814239620	795.775131182805	492.363879522759	591.693802548403	841.585962054363	787.873349607668	400.340264514304	797.831472408593	660.419134470270	324.658287216516	900.087759583018	599.701732475127	385.901419159949	920.414452570661	517.910350286873	379.867751022440	876.203431768346	443.504312691854	369.014225645787	761.605034596786	356.622876489907	313.554506343099	794.586221038939	230.155167693420	367.375121845583	768.370290258112	404.747576258105	598.883540705910	697.902883252636	300.701472174306	659.439118747124	738.271732051259	207.020408997673	594.437831635723	600.022359380326	43.323318502705	563.177690589307	772.755720638450	97.133831966722	597.862926637739	683.967614473705	36.458762749351	637.298631368789	892.138010734147	43.431446983247	624.613268225374	639.601761676416	98.496644257718	396.430773920923	712.049604378290	82.484416814479	317.295199827272	805.004609587744	127.959553941665	343.149518626850	919.165714305061	56.061466546081	315.657066894636	661.307410015920	1086.879756379698	244.830255746673	711.224699757935	832.066156150075	226.093133863478	817.793261140521	1107.531746081441	826.971706798363	1051.152729759702	1002.040059877791	797.001289511556	
108	3.938642857143	752.200602849886	968.703181301274	372.205384535161	550.376970165278	1011.248726446342	544.684014926518	715.018134798416	1440.610882129384	357.453719879737	830.033174738234	1367.820187726561	508.902295622271	761.890034810018	1440.278611195643	690.881195335050	729.946619522037	1499.364255643170	508.660964434717	785.596618433052	942.837792134630	643.573293498060	812.430811958645	738.839701127678	609.086083491588	729.018444294634	634.675775403161	672.804870212815	795.636541799504	578.751451147863	587.045544957330	790.226449869914	492.012877824892	591.634885942382	838.701183273325	788.077305780177	400.720916011349	795.010512507781	660.823974826327	324.553075653432	896.132521847243	599.785518094581	387.095775664923	917.867281463019	520.349144876021	380.890874297160	878.132215523971	445.750969731148	369.218172961715	770.681987635555	351.231283247651	312.578611765584	812.229556787526	227.191484165073	366.695857149357	762.667660963508	404.488386870815	598.811674625301	691.994936993324	300.640860246704	659.454288585959	731.992486482091	206.849926153724	594.351832190272	593.429860368902	43.267916408840	563.148758166596	766.103320318667	97.093370969262	597.799824860763	677.348347497939	36.439911867630	637.266317324234	885.520177877759	43.413700087786	624.634864422911	667.134780024287	84.554480241329	394.622849223317	741.285345298470	73.869182593546	316.061033099803	830.439751677853	125.872807780518	342.599052249978	949.722660961110	62.445403012172	316.132799035518	652.461773579368	1088.506467077876	245.062488813625	693.467598787586	832.342239105117	226.294802434169	824.636788729193	1109.256543962422	826.999492556088	1062.540515817610	1016.976549405564	792.942256528628	
109	3.951714285714	749.920036039210	968.691114982673	371.910934047601	549.007313410177	1011.714027985321	545.490757706487	714.012792835524	1440.634372679778	357.626200404381	829.664782972430	1367.355632447885	508.296139470711	762.973913495702	1440.126208945876	690.710812527770	729.909156750803	1499.219954488897	508.800097892572	784.216826332848	942.493840523639	643.253311555872	809.287367705523	738.166690216397	608.657543145575	725.417378350462	634.562410543251	672.938462560542	791.077016753117	578.146233572228	586.874130788592	785.001658652709	491.598311087990	591.586808420662	835.425118780277	787.623220383816	400.977274688375	791.624391488020	660.804860497376	324.151451122741	891.477485043096	599.217605671374	388.111498206136	914.531606293845	522.291059936393	381.765108953712	879.275420775778	447.866137539328	369.334289859330	779.515685903249	346.120674979143	311.568011068096	829.382172183579	225.147866204889	366.237025038543	757.226618062980	404.164339418042	598.728320570376	686.283733949849	300.559019542293	659.464323204419	725.809673203919	206.625830896697	594.260549033232	586.836759608481	43.225362571125	563.130701104333	759.453880264946	97.047090399259	597.733579146548	670.732526421530	36.418299984554	637.242133806029	878.908658945737	43.370399654918	624.656053398153	694.784933974980	72.343483719127	393.142780383786	770.457579243980	66.772330386545	315.326417939875	855.410690577078	125.025909364980	342.499697331525	979.243676638078	70.131604613801	317.467110583146	643.756352689700	1090.178387323587	245.273931536881	676.454070140539	833.023369048902	226.680565642204	831.158378385946	1110.835517249832	826.606704708196	1072.731382145791	1031.930410200867	788.359814747957	
